<svg width="392" height="94" xmlns="http://www.w3.org/2000/svg" xmlns:xlink="http://www.w3.org/1999/xlink" xml:space="preserve" overflow="hidden"><defs><linearGradient x1="527.561" y1="727.897" x2="870.12" y2="727.897" gradientUnits="userSpaceOnUse" spreadMethod="reflect" id="fill0"><stop offset="0" stop-color="#FF2800"/><stop offset="0.01" stop-color="#FF2901"/><stop offset="0.02" stop-color="#FF2B03"/><stop offset="0.03" stop-color="#FF2D05"/><stop offset="0.04" stop-color="#FF2F07"/><stop offset="0.05" stop-color="#FF3009"/><stop offset="0.06" stop-color="#FF320B"/><stop offset="0.07" stop-color="#FF340C"/><stop offset="0.08" stop-color="#FF360E"/><stop offset="0.09" stop-color="#FF3710"/><stop offset="0.1" stop-color="#FF3912"/><stop offset="0.11" stop-color="#FF3B13"/><stop offset="0.12" stop-color="#FF3C15"/><stop offset="0.13" stop-color="#FF3E17"/><stop offset="0.14" stop-color="#FF4018"/><stop offset="0.15" stop-color="#FF411A"/><stop offset="0.16" stop-color="#FF431C"/><stop offset="0.17" stop-color="#FF441D"/><stop offset="0.18" stop-color="#FF461F"/><stop offset="0.19" stop-color="#FF4720"/><stop offset="0.2" stop-color="#FF4922"/><stop offset="0.21" stop-color="#FF4B24"/><stop offset="0.22" stop-color="#FF4C25"/><stop offset="0.23" stop-color="#FF4D27"/><stop offset="0.24" stop-color="#FF4F28"/><stop offset="0.25" stop-color="#FF502A"/><stop offset="0.26" stop-color="#FF522B"/><stop offset="0.27" stop-color="#FF532D"/><stop offset="0.28" stop-color="#FF552E"/><stop offset="0.29" stop-color="#FF562F"/><stop offset="0.3" stop-color="#FF5731"/><stop offset="0.31" stop-color="#FF5932"/><stop offset="0.32" stop-color="#FF5A33"/><stop offset="0.33" stop-color="#FF5B35"/><stop offset="0.34" stop-color="#FF5D36"/><stop offset="0.35" stop-color="#FF5E37"/><stop offset="0.36" stop-color="#FF5F39"/><stop offset="0.37" stop-color="#FF603A"/><stop offset="0.38" stop-color="#FF623B"/><stop offset="0.39" stop-color="#FF633D"/><stop offset="0.4" stop-color="#FF643E"/><stop offset="0.41" stop-color="#FF653F"/><stop offset="0.42" stop-color="#FF6640"/><stop offset="0.43" stop-color="#FF6741"/><stop offset="0.44" stop-color="#FF6842"/><stop offset="0.45" stop-color="#FF6A44"/><stop offset="0.46" stop-color="#FF6B45"/><stop offset="0.47" stop-color="#FF6C46"/><stop offset="0.48" stop-color="#FF6D47"/><stop offset="0.49" stop-color="#FF6E48"/><stop offset="0.5" stop-color="#FF6F49"/><stop offset="0.51" stop-color="#FF704A"/><stop offset="0.52" stop-color="#FF714B"/><stop offset="0.53" stop-color="#FF724C"/><stop offset="0.54" stop-color="#FF734D"/><stop offset="0.55" stop-color="#FF744E"/><stop offset="0.56" stop-color="#FF744F"/><stop offset="0.57" stop-color="#FF7550"/><stop offset="0.58" stop-color="#FF7651"/><stop offset="0.59" stop-color="#FF7752"/><stop offset="0.6" stop-color="#FF7852"/><stop offset="0.61" stop-color="#FF7953"/><stop offset="0.62" stop-color="#FF7A54"/><stop offset="0.63" stop-color="#FF7A55"/><stop offset="0.64" stop-color="#FF7B56"/><stop offset="0.65" stop-color="#FF7C56"/><stop offset="0.66" stop-color="#FF7D57"/><stop offset="0.67" stop-color="#FF7D58"/><stop offset="0.68" stop-color="#FF7E59"/><stop offset="0.69" stop-color="#FF7F59"/><stop offset="0.7" stop-color="#FF7F5A"/><stop offset="0.71" stop-color="#FF805B"/><stop offset="0.72" stop-color="#FF805B"/><stop offset="0.73" stop-color="#FF815C"/><stop offset="0.74" stop-color="#FF825C"/><stop offset="0.75" stop-color="#FF825D"/><stop offset="0.76" stop-color="#FF835E"/><stop offset="0.77" stop-color="#FF835E"/><stop offset="0.78" stop-color="#FF845F"/><stop offset="0.79" stop-color="#FF845F"/><stop offset="0.8" stop-color="#FF8560"/><stop offset="0.81" stop-color="#FF8560"/><stop offset="0.82" stop-color="#FF8660"/><stop offset="0.83" stop-color="#FF8661"/><stop offset="0.84" stop-color="#FF8661"/><stop offset="0.85" stop-color="#FF8762"/><stop offset="0.86" stop-color="#FF8762"/><stop offset="0.87" stop-color="#FF8762"/><stop offset="0.88" stop-color="#FF8863"/><stop offset="0.89" stop-color="#FF8863"/><stop offset="0.9" stop-color="#FF8863"/><stop offset="0.91" stop-color="#FF8863"/><stop offset="0.92" stop-color="#FF8964"/><stop offset="0.93" stop-color="#FF8964"/><stop offset="0.94" stop-color="#FF8964"/><stop offset="0.95" stop-color="#FF8964"/><stop offset="0.96" stop-color="#FF8964"/><stop offset="0.97" stop-color="#FF8964"/><stop offset="0.98" stop-color="#FF8964"/><stop offset="0.99" stop-color="#FF8964"/><stop offset="1" stop-color="#FF8A65"/></linearGradient></defs><g transform="translate(-527 -670)"><path d="M775.874 725.132C774.249 725.132 772.952 725.721 771.983 726.898 771.015 728.075 770.53 730.028 770.53 732.757 770.53 735.153 771.041 736.929 772.061 738.085 773.082 739.242 774.426 739.82 776.093 739.82 777.676 739.82 779.004 739.221 780.077 738.023 781.15 736.825 781.686 735.018 781.686 732.601 781.686 730.184 781.124 728.335 779.999 727.054 778.874 725.773 777.499 725.132 775.874 725.132ZM669.999 724.663C668.145 724.663 666.614 725.377 665.405 726.804 664.197 728.231 663.593 730.403 663.593 733.32 663.593 736.278 664.192 738.466 665.39 739.882 666.588 741.299 668.093 742.007 669.905 742.007 671.739 742.007 673.244 741.309 674.421 739.913 675.598 738.518 676.186 736.278 676.186 733.195 676.186 730.32 675.593 728.179 674.405 726.773 673.218 725.367 671.749 724.663 669.999 724.663ZM738.874 716.663 751.593 716.663 751.593 749.851 738.874 749.851ZM580.28 716.663 593.061 716.663 593.061 734.913C593.061 736.997 593.447 738.476 594.218 739.351 594.989 740.226 596.072 740.663 597.468 740.663 598.989 740.663 600.233 740.08 601.202 738.913 602.171 737.747 602.655 735.653 602.655 732.632L602.655 716.663 615.374 716.663 615.374 749.851 603.499 749.851 603.499 744.476C601.728 746.684 599.942 748.257 598.14 749.195 596.338 750.132 594.124 750.601 591.499 750.601 587.999 750.601 585.254 749.554 583.265 747.46 581.275 745.367 580.28 742.143 580.28 737.788ZM771.405 715.913C773.989 715.913 776.119 716.351 777.796 717.226 779.473 718.101 781.041 719.549 782.499 721.57L782.499 716.663 794.405 716.663 794.405 748.007 794.436 749.476C794.436 751.559 793.994 753.544 793.108 755.429 792.223 757.315 791.046 758.841 789.577 760.007 788.108 761.174 786.244 762.018 783.983 762.538 781.723 763.059 779.134 763.32 776.218 763.32 769.551 763.32 764.973 762.32 762.483 760.32 759.994 758.32 758.749 755.643 758.749 752.288 758.749 751.872 758.77 751.309 758.811 750.601L771.155 752.007C771.468 753.153 771.947 753.945 772.593 754.382 773.53 755.028 774.707 755.351 776.124 755.351 777.957 755.351 779.327 754.861 780.233 753.882 781.14 752.903 781.593 751.195 781.593 748.757L781.593 743.726C780.343 745.205 779.093 746.278 777.843 746.945 775.884 747.986 773.77 748.507 771.499 748.507 767.061 748.507 763.478 746.57 760.749 742.695 758.811 739.945 757.843 736.309 757.843 731.788 757.843 726.622 759.093 722.684 761.593 719.976 764.093 717.268 767.364 715.913 771.405 715.913ZM669.811 715.913C676.457 715.913 681.478 717.841 684.874 721.695 687.603 724.799 688.968 728.622 688.968 733.163 688.968 738.268 687.275 742.45 683.89 745.71 680.504 748.971 675.822 750.601 669.843 750.601 664.509 750.601 660.197 749.247 656.905 746.538 652.864 743.184 650.843 738.788 650.843 733.351 650.843 728.288 652.551 724.117 655.968 720.835 659.384 717.554 663.999 715.913 669.811 715.913ZM552.421 715.913 547.417 732.382 557.477 732.382ZM860.749 704.038 860.749 716.663 867.749 716.663 867.749 725.976 860.749 725.976 860.749 737.734C860.749 739.148 860.884 740.083 861.155 740.54 861.572 741.247 862.301 741.601 863.343 741.601 864.28 741.601 865.593 741.331 867.28 740.79L868.218 749.57C865.072 750.257 862.134 750.601 859.405 750.601 856.239 750.601 853.905 750.195 852.405 749.384 850.905 748.572 849.796 747.339 849.077 745.685 848.358 744.031 847.999 741.352 847.999 737.649L847.999 725.976 843.311 725.976 843.311 716.663 847.999 716.663 847.999 710.57ZM802.405 704.038 815.124 704.038 815.124 720.913C816.853 719.122 818.572 717.841 820.28 717.07 821.989 716.299 824.009 715.913 826.343 715.913 829.801 715.913 832.525 716.966 834.515 719.07 836.504 721.174 837.499 724.403 837.499 728.757L837.499 749.851 824.718 749.851 824.718 731.601C824.718 729.518 824.332 728.044 823.561 727.179 822.791 726.315 821.707 725.882 820.311 725.882 818.77 725.882 817.52 726.466 816.561 727.632 815.603 728.799 815.124 730.893 815.124 733.913L815.124 749.851 802.405 749.851ZM738.874 704.038 751.593 704.038 751.593 712.695 738.874 712.695ZM696.249 704.038 710.405 704.038 710.405 738.57 732.499 738.57 732.499 749.851 696.249 749.851ZM638.749 704.038 638.749 716.663 645.749 716.663 645.749 725.976 638.749 725.976 638.749 737.734C638.749 739.148 638.884 740.083 639.155 740.54 639.572 741.247 640.301 741.601 641.343 741.601 642.28 741.601 643.593 741.331 645.28 740.79L646.218 749.57C643.072 750.257 640.134 750.601 637.405 750.601 634.239 750.601 631.905 750.195 630.405 749.384 628.905 748.572 627.796 747.339 627.077 745.685 626.358 744.031 625.999 741.352 625.999 737.649L625.999 725.976 621.311 725.976 621.311 716.663 625.999 716.663 625.999 710.57ZM544.874 704.038 560.315 704.038 577.53 749.851 562.706 749.851 560.414 742.288 544.342 742.288 542.109 749.851 527.655 749.851Z" fill="url(#fill0)" fill-rule="evenodd"/><text fill="#000000" fill-opacity="0" font-family="Arial,Arial_MSFontService,sans-serif" font-size="59.2812" x="527.655" y="755.91">AutoLight</text></g></svg>